<svg width="190" height="34" viewBox="0 0 190 34" fill="none" xmlns="http://www.w3.org/2000/svg">
<mask id="mask0_1921_8365" style="mask-type:luminance" maskUnits="userSpaceOnUse" x="0" y="0" width="191" height="34">
<path d="M190.01 0H0V33.4002H190.01V0Z" fill="white"/>
</mask>
<g mask="url(#mask0_1921_8365)">
<path d="M105.296 29.8906H92.3652V33.3938H105.296V29.8906Z" fill="#8D7E65"/>
<path d="M150.676 5.6076C152.293 5.6076 153.604 4.35227 153.604 2.8038C153.604 1.25533 152.293 0 150.676 0C149.059 0 147.748 1.25533 147.748 2.8038C147.748 4.35227 149.059 5.6076 150.676 5.6076Z" fill="#8D7E65"/>
<path d="M168.131 8.77957C164.296 8.77957 162.41 11.0005 161.785 11.9269L159.188 9.57715H158.416V29.7436H162.851V17.7063C162.857 15.2584 164.008 12.7307 167.451 12.7307C170.893 12.7307 172.032 15.2584 172.032 17.7063L172.045 29.7498H176.485V16.9578C176.479 12.6693 173.833 8.77344 168.124 8.77344L168.131 8.77957Z" fill="#8D7E65"/>
<path d="M18.9452 8.77176C15.9745 8.77176 14.4677 10.3178 13.7878 11.3731C12.8445 9.88224 11.1907 8.77176 8.62428 8.77176C5.26767 8.77176 3.70575 10.6553 3.10548 11.6799L0.771775 9.56934H0V29.7358H4.43464V16.7782C4.44077 14.3303 5.22479 12.7228 7.50949 12.7228C9.79419 12.7228 10.5537 14.3303 10.5537 16.7782V29.7358H14.9639V16.7782C14.9639 14.3303 15.7356 12.7228 18.0265 12.7228C20.3173 12.7228 21.0707 14.3303 21.0707 16.7782V29.7358H25.4808V16.0052C25.4808 11.7167 23.3799 8.76562 18.9514 8.76562L18.9452 8.77176Z" fill="#8D7E65"/>
<path d="M68.2957 11.8779C67.6955 11.0189 65.7109 8.77344 61.3988 8.77344C54.9918 8.77344 51.5801 13.6448 51.5801 19.6573C51.5801 25.6699 54.7836 30.5412 61.1905 30.5412C65.5578 30.5412 67.5056 28.1914 68.1059 27.265L70.8438 29.7436H71.6156V9.57715H70.8438L68.2957 11.8779ZM61.7785 26.5963C58.0422 26.5963 56.2414 23.4918 56.2414 19.6635C56.2414 15.8351 58.0422 12.7307 61.7785 12.7307C65.5149 12.7307 67.3157 15.8351 67.3157 19.6635C67.3157 23.4918 65.5149 26.5963 61.7785 26.5963Z" fill="#8D7E65"/>
<path d="M183.645 0C179.468 0 177.281 2.82834 177.281 6.31928C177.281 9.81023 179.474 12.6386 183.645 12.6386C187.817 12.6386 190.009 9.81023 190.009 6.31928C190.009 2.82834 187.817 0 183.645 0ZM183.645 11.1109C180.503 11.1109 178.855 8.96357 178.855 6.31315C178.855 3.66273 180.503 1.5154 183.645 1.5154C186.788 1.5154 188.435 3.66273 188.435 6.31315C188.435 8.96357 186.788 11.1109 183.645 11.1109Z" fill="#8D7E65"/>
<path d="M180.941 6.31603C180.941 7.91732 182.111 9.21799 183.851 9.21799C184.666 9.21799 185.284 8.87442 185.97 8.46949V7.24858H185.615C184.862 7.65351 184.396 7.77621 184.096 7.77621C183.042 7.77621 182.485 7.11974 182.485 6.31603C182.485 5.51231 183.042 4.85584 184.096 4.85584C184.396 4.85584 184.862 4.97855 185.615 5.38347H185.97V4.16256C185.284 3.75764 184.666 3.41406 183.851 3.41406C182.111 3.41406 180.941 4.71473 180.941 6.31603Z" fill="#8D7E65"/>
<path d="M153.055 9.57812H148.461V29.7446H153.055V9.57812Z" fill="#8D7E65"/>
<path d="M85.6445 26.4724C83.4578 26.4724 82.1776 25.3373 82.1776 23.2636V13.3368H90.0363V9.57595H82.1776V5.36719H81.8469L73.7188 12.7172V13.3307H77.5776V23.8035C77.5776 28.2209 81.0629 30.54 85.081 30.54C86.9431 30.54 88.9827 29.859 90.6304 28.7669V24.6686H90.2078C88.5356 25.7914 87.0288 26.4662 85.6445 26.4662V26.4724Z" fill="#8D7E65"/>
<path d="M39.3059 8.77344C32.556 8.77344 28.8809 13.3626 28.8809 19.6573C28.8809 25.9521 33.1195 30.5412 39.9552 30.5412C41.8357 30.5412 44.0775 29.9952 46.6991 29.0013V25.1238H46.1907C43.8447 25.9889 41.8479 26.492 39.9675 26.492C36.6782 26.492 33.8606 24.7987 33.4319 21.3507H48.849C48.9103 20.7739 48.947 20.2095 48.947 19.6573C48.947 13.5528 45.8232 8.77344 39.3059 8.77344ZM33.5115 17.5223C33.9709 14.6755 35.7533 12.4055 38.9813 12.4055C42.2093 12.4055 44.2245 14.7737 44.2245 17.5223H33.5115Z" fill="#8D7E65"/>
<path d="M134.361 8.77344C127.562 8.77344 124.156 13.6448 124.156 19.6573C124.156 25.6699 127.562 30.5412 134.361 30.5412C141.16 30.5412 144.565 25.6699 144.565 19.6573C144.565 13.6448 141.16 8.77344 134.361 8.77344ZM134.361 26.5901C130.624 26.5901 128.664 23.4857 128.664 19.6573C128.664 15.829 130.624 12.7245 134.361 12.7245C138.097 12.7245 140.057 15.829 140.057 19.6573C140.057 23.4857 138.097 26.5901 134.361 26.5901Z" fill="#8D7E65"/>
<path d="M105.086 19.6618C105.086 25.6743 108.289 30.5457 115.683 30.5457C117.6 30.5457 119.198 30.0794 121.893 28.9935V24.932H121.367C118.059 26.3369 117.22 26.5885 115.817 26.5885C111.744 26.5885 109.717 23.484 109.717 19.6557C109.717 15.8273 111.744 12.7228 115.817 12.7228C117.22 12.7228 118.059 12.9744 121.367 14.3794H121.893V10.3178C119.198 9.2319 117.6 8.76562 115.683 8.76562C108.289 8.76562 105.086 13.637 105.086 19.6495V19.6618Z" fill="#8D7E65"/>
</g>
</svg>
