<svg width="158" height="44" viewBox="0 0 158 44" fill="none" xmlns="http://www.w3.org/2000/svg">
<mask id="mask0_1848_3182" style="mask-type:luminance" maskUnits="userSpaceOnUse" x="7" y="9" width="144" height="26">
<path d="M150.799 9.36133H7.48047V34.5812H150.799V9.36133Z" fill="white"/>
</mask>
<g mask="url(#mask0_1848_3182)">
<path d="M86.9013 31.9343H77.1484V34.5795H86.9013V31.9343Z" fill="white"/>
<path d="M121.13 13.5955C122.35 13.5955 123.339 12.6476 123.339 11.4784C123.339 10.3092 122.35 9.36133 121.13 9.36133C119.911 9.36133 118.922 10.3092 118.922 11.4784C118.922 12.6476 119.911 13.5955 121.13 13.5955Z" fill="white"/>
<path d="M134.296 15.9888C131.404 15.9888 129.981 17.6658 129.51 18.3653L127.551 16.591H126.969V31.8183H130.314V22.7292C130.318 20.8808 131.187 18.9722 133.783 18.9722C136.38 18.9722 137.239 20.8808 137.239 22.7292L137.248 31.823H140.598V22.164C140.593 18.9258 138.597 15.9841 134.292 15.9841L134.296 15.9888Z" fill="white"/>
<path d="M21.7703 15.9831C19.5295 15.9831 18.393 17.1506 17.8802 17.9474C17.1687 16.8216 15.9213 15.9831 13.9855 15.9831C11.4537 15.9831 10.2756 17.4054 9.82283 18.179L8.06259 16.5854H7.48047V31.8127H10.8254V22.0287C10.83 20.1803 11.4214 18.9665 13.1446 18.9665C14.8679 18.9665 15.4408 20.1803 15.4408 22.0287V31.8127H18.7672V22.0287C18.7672 20.1803 19.3494 18.9665 21.0773 18.9665C22.8051 18.9665 23.3734 20.1803 23.3734 22.0287V31.8127H26.6998V21.445C26.6998 18.2068 25.1152 15.9785 21.7749 15.9785L21.7703 15.9831Z" fill="white"/>
<path d="M58.9948 18.3282C58.5421 17.6797 57.0452 15.9841 53.7926 15.9841C48.9601 15.9841 46.3867 19.6624 46.3867 24.2024C46.3867 28.7423 48.803 32.4206 53.6356 32.4206C56.9297 32.4206 58.3988 30.6463 58.8516 29.9468L60.9168 31.8183H61.4989V16.591H60.9168L58.9948 18.3282ZM54.0791 29.4418C51.2609 29.4418 49.9026 27.0977 49.9026 24.207C49.9026 21.3162 51.2609 18.9722 54.0791 18.9722C56.8973 18.9722 58.2556 21.3162 58.2556 24.207C58.2556 27.0977 56.8973 29.4418 54.0791 29.4418Z" fill="white"/>
<path d="M145.999 9.36133C142.849 9.36133 141.199 11.497 141.199 14.1329C141.199 16.7688 142.853 18.9045 145.999 18.9045C149.146 18.9045 150.8 16.7688 150.8 14.1329C150.8 11.497 149.146 9.36133 145.999 9.36133ZM145.999 17.751C143.629 17.751 142.387 16.1295 142.387 14.1283C142.387 12.127 143.629 10.5056 145.999 10.5056C148.37 10.5056 149.612 12.127 149.612 14.1283C149.612 16.1295 148.37 17.751 145.999 17.751Z" fill="white"/>
<path d="M143.959 14.1307C143.959 15.3398 144.841 16.3219 146.154 16.3219C146.768 16.3219 147.235 16.0625 147.752 15.7567V14.8348H147.484C146.916 15.1406 146.565 15.2332 146.338 15.2332C145.544 15.2332 145.123 14.7375 145.123 14.1307C145.123 13.5238 145.544 13.0281 146.338 13.0281C146.565 13.0281 146.916 13.1208 147.484 13.4265H147.752V12.5046C147.235 12.1989 146.768 11.9395 146.154 11.9395C144.841 11.9395 143.959 12.9216 143.959 14.1307Z" fill="white"/>
<path d="M122.926 16.5916H119.461V31.8189H122.926V16.5916Z" fill="white"/>
<path d="M72.0792 29.348C70.4299 29.348 69.4643 28.491 69.4643 26.9251V19.4296H75.3918V16.5898H69.4643V13.4119H69.2148L63.084 18.9617V19.425H65.9946V27.3328C65.9946 30.6683 68.6234 32.4194 71.6542 32.4194C73.0587 32.4194 74.5971 31.9052 75.8399 31.0806V27.986H75.5211C74.2599 28.8338 73.1233 29.3434 72.0792 29.3434V29.348Z" fill="white"/>
<path d="M37.1289 15.9841C32.0377 15.9841 29.2656 19.4493 29.2656 24.2024C29.2656 28.9554 32.4627 32.4206 37.6187 32.4206C39.037 32.4206 40.728 32.0083 42.7053 31.2578V28.33H42.3219C40.5524 28.9832 39.0463 29.3631 37.6279 29.3631C35.1469 29.3631 33.0217 28.0845 32.6983 25.481H44.327C44.3732 25.0455 44.4009 24.6193 44.4009 24.2024C44.4009 19.5929 42.0447 15.9841 37.1289 15.9841ZM32.7584 22.5902C33.1049 20.4407 34.4493 18.7266 36.8841 18.7266C39.3188 18.7266 40.8388 20.5148 40.8388 22.5902H32.7584Z" fill="white"/>
<path d="M108.824 15.9841C103.696 15.9841 101.127 19.6624 101.127 24.2024C101.127 28.7423 103.696 32.4206 108.824 32.4206C113.952 32.4206 116.521 28.7423 116.521 24.2024C116.521 19.6624 113.952 15.9841 108.824 15.9841ZM108.824 29.4372C106.006 29.4372 104.527 27.0931 104.527 24.2024C104.527 21.3116 106.006 18.9675 108.824 18.9675C111.642 18.9675 113.121 21.3116 113.121 24.2024C113.121 27.0931 111.642 29.4372 108.824 29.4372Z" fill="white"/>
<path d="M86.7441 24.206C86.7441 28.746 89.1604 32.4242 94.7368 32.4242C96.1829 32.4242 97.3887 32.0722 99.4215 31.2522V28.1854H99.0242C96.5294 29.2463 95.8964 29.4362 94.8385 29.4362C91.7661 29.4362 90.2369 27.0921 90.2369 24.2014C90.2369 21.3106 91.7661 18.9665 94.8385 18.9665C95.8964 18.9665 96.5294 19.1565 99.0242 20.2173H99.4215V17.1506C97.3887 16.3306 96.1829 15.9785 94.7368 15.9785C89.1604 15.9785 86.7441 19.6568 86.7441 24.1967V24.206Z" fill="white"/>
</g>
</svg>
