<svg width="24" height="24" viewBox="0 0 24 24" fill="none" xmlns="http://www.w3.org/2000/svg">
<path fill-rule="evenodd" clip-rule="evenodd" d="M4.75392 11.9997C4.75392 10.0769 5.51775 8.23285 6.87739 6.87322C8.23703 5.51358 10.0811 4.74974 12.0039 4.74974C13.9267 4.74974 15.7708 5.51358 17.1304 6.87322C18.4901 8.23285 19.2539 10.0769 19.2539 11.9997C19.2539 12.0331 19.2559 12.0664 19.2599 12.0997C19.2571 12.1313 19.2557 12.163 19.2559 12.1947C19.2629 12.4497 19.2299 12.8447 19.1459 13.2217C19.0559 13.6327 18.9359 13.8687 18.8669 13.9417C18.7174 14.0986 18.5385 14.2245 18.3403 14.3122C18.1422 14.4 17.9287 14.4478 17.712 14.453C17.4954 14.4582 17.2798 14.4207 17.0777 14.3425C16.8755 14.2644 16.6908 14.1473 16.5339 13.9977C16.3269 13.8007 16.2679 13.5107 16.2519 12.8377L16.1359 8.03974C16.1311 7.84083 16.0475 7.65196 15.9035 7.51468C15.7595 7.37741 15.5668 7.30297 15.3679 7.30774C15.169 7.31251 14.9801 7.39611 14.8429 7.54014C14.7056 7.68417 14.6311 7.87683 14.6359 8.07574L14.6529 8.76874C14.0164 8.24664 13.2398 7.9242 12.4206 7.84187C11.6015 7.75954 10.7763 7.921 10.0486 8.30597C9.32083 8.69095 8.72304 9.2823 8.33019 10.0058C7.93734 10.7293 7.76694 11.5527 7.84038 12.3727C7.91383 13.1927 8.22783 13.9727 8.74299 14.6149C9.25815 15.2571 9.95152 15.7328 10.7361 15.9823C11.5206 16.2319 12.3614 16.2441 13.1529 16.0175C13.9443 15.791 14.6513 15.3356 15.1849 14.7087C15.2709 14.8401 15.3759 14.9651 15.4999 15.0837C16.1047 15.66 16.9135 15.9724 17.7486 15.9523C18.5836 15.9323 19.3766 15.5814 19.9529 14.9767C20.3229 14.5887 20.5099 14.0017 20.6109 13.5467C20.7131 13.0913 20.7617 12.6255 20.7559 12.1587L20.7499 12.0767L20.7539 11.9997C20.7539 10.0198 20.0823 8.09847 18.849 6.54959C17.6157 5.00072 15.8936 3.91589 13.964 3.47237C12.0344 3.02885 10.0114 3.25286 8.22563 4.10779C6.43981 4.96273 4.99674 6.39804 4.13219 8.17922C3.26764 9.96039 3.03273 11.9821 3.46583 13.9141C3.89894 15.846 4.97446 17.574 6.51667 18.8156C8.05887 20.0573 9.97658 20.7391 11.9565 20.7499C13.9363 20.7606 15.8613 20.0996 17.4169 18.8747C17.5681 18.75 17.6645 18.5711 17.6854 18.3762C17.7063 18.1813 17.6501 17.986 17.5288 17.832C17.4076 17.6781 17.2308 17.5777 17.0365 17.5524C16.8421 17.5271 16.6456 17.5789 16.4889 17.6967C15.4196 18.5386 14.135 19.0626 12.7819 19.2086C11.4288 19.3547 10.0619 19.1169 8.83765 18.5225C7.61335 17.9282 6.58107 17.0012 5.85888 15.8477C5.1367 14.6942 4.75377 13.3607 4.75392 11.9997ZM12.0039 9.32074C11.2934 9.32074 10.612 9.60299 10.1096 10.1054C9.60717 10.6078 9.32492 11.2892 9.32492 11.9997C9.32492 12.7103 9.60717 13.3917 10.1096 13.8941C10.612 14.3965 11.2934 14.6787 12.0039 14.6787C12.7144 14.6787 13.3958 14.3965 13.8983 13.8941C14.4007 13.3917 14.6829 12.7103 14.6829 11.9997C14.6829 11.2892 14.4007 10.6078 13.8983 10.1054C13.3958 9.60299 12.7144 9.32074 12.0039 9.32074Z" fill="#8D7E65"/>
</svg>
