<svg width="67" height="260" viewBox="0 0 67 260" fill="none" xmlns="http://www.w3.org/2000/svg">
<path d="M28.7663 2.32453C31.0909 -0.774816 35.7399 -0.774819 38.0645 2.32453L65.6684 39.1293C67.2181 41.1956 67.2182 44.0367 65.6685 46.1029L38.2082 82.7171C36.6585 84.7834 36.6586 87.6245 38.2083 89.6908L65.6683 126.303C67.2181 128.369 67.2181 131.211 65.6684 133.277L38.2103 169.887C36.6605 171.953 36.6605 174.794 38.2103 176.861L65.6683 213.47C67.2181 215.536 67.2181 218.378 65.6684 220.444L38.0645 257.249C35.7399 260.349 31.0908 260.349 28.7663 257.249L1.16231 220.444C-0.387382 218.377 -0.387371 215.536 1.16233 213.47L28.6196 176.861C30.1693 174.794 30.1693 171.953 28.6196 169.887L1.16228 133.277C-0.387389 131.21 -0.387376 128.369 1.16231 126.303L28.6216 89.6907C30.1713 87.6245 30.1713 84.7835 28.6217 82.7172L1.16222 46.1029C-0.387407 44.0366 -0.387366 41.1956 1.16232 39.1294L28.7663 2.32453ZM28.7653 249.986C31.0899 253.085 35.7389 253.085 38.0635 249.986L60.2192 220.445C61.7689 218.378 61.7689 215.537 60.2192 213.471L38.0635 183.93C35.7389 180.831 31.0899 180.831 28.7653 183.93L6.60958 213.471C5.05989 215.537 5.05989 218.378 6.60958 220.445L28.7653 249.986ZM28.7653 162.819C31.0899 165.918 35.7389 165.918 38.0635 162.819L60.2192 133.278C61.7689 131.211 61.7689 128.37 60.2192 126.304L38.0635 96.7631C35.739 93.6637 31.0899 93.6637 28.7653 96.7631L6.60959 126.304C5.0599 128.37 5.0599 131.211 6.60959 133.278L28.7653 162.819ZM28.7653 75.6449C31.0899 78.7443 35.739 78.7443 38.0635 75.6449L60.2192 46.1039C61.7689 44.0376 61.7689 41.1965 60.2192 39.1303L38.0635 9.58929C35.739 6.48991 31.0899 6.48991 28.7653 9.58929L6.6096 39.1303C5.05991 41.1965 5.05991 44.0376 6.60961 46.1039L28.7653 75.6449Z" fill="#494949"/>
</svg>
