<svg width="77" height="96" viewBox="0 0 77 96" fill="none" xmlns="http://www.w3.org/2000/svg">
<g clip-path="url(#clip0_1921_5559)">
<path d="M77.3231 86.3231C74.2364 84.5476 71.3965 82.3801 68.6533 80.1352C61.2559 73.9167 54.4585 66.9273 49.0253 58.9075C48.5318 58.1624 48.0513 57.4044 47.6094 56.6094C48.406 57.0513 49.1624 57.5318 49.9075 58.0253C57.9273 63.4585 64.9167 70.2559 71.1369 77.6533C73.3817 80.3965 75.5476 83.2364 77.3247 86.3231H77.3231Z" fill="#FAF7F2"/>
<path d="M30.3895 39.3911C27.3028 37.6156 24.4629 35.4481 21.7197 33.2033C14.3223 26.9847 7.52486 19.9954 2.09172 11.9739C1.59824 11.2288 1.11766 10.4708 0.675781 9.67578C1.47245 10.1177 2.2288 10.5982 2.97386 11.0917C10.9937 16.5249 17.9831 23.3223 24.2033 30.7197C26.4481 33.4629 28.614 36.3028 30.3911 39.3895L30.3895 39.3911Z" fill="#FAF7F2"/>
<path d="M0.675781 86.3231C2.45135 83.2364 4.6188 80.3965 6.86366 77.6533C13.0822 70.2559 20.0716 63.4585 28.0914 58.0253C28.8365 57.5318 29.5945 57.0513 30.3895 56.6094C29.9477 57.406 29.4671 58.1624 28.9736 58.9075C23.5404 66.9273 16.743 73.9167 9.34558 80.1369C6.6024 82.3817 3.76246 84.5476 0.675781 86.3247V86.3231Z" fill="#FAF7F2"/>
<path d="M47.6094 39.3895C49.3849 36.3028 51.5524 33.4629 53.7973 30.7197C60.0158 23.3223 67.0052 16.5249 75.0267 11.0917C75.7717 10.5982 76.5297 10.1177 77.3247 9.67578C76.8829 10.4724 76.4023 11.2288 75.9088 11.9739C70.4757 19.9937 63.6782 26.9831 56.2808 33.2033C53.5376 35.4481 50.6977 37.614 47.611 39.3911L47.6094 39.3895Z" fill="#FAF7F2"/>
<path d="M39.0017 52.5736C41.5267 52.5736 43.5736 50.5267 43.5736 48.0017C43.5736 45.4766 41.5267 43.4297 39.0017 43.4297C36.4766 43.4297 34.4297 45.4766 34.4297 48.0017C34.4297 50.5267 36.4766 52.5736 39.0017 52.5736Z" fill="#FAF7F2"/>
</g>
<defs>
<clipPath id="clip0_1921_5559">
<rect width="77" height="96" fill="white"/>
</clipPath>
</defs>
</svg>
