<svg width="24" height="24" viewBox="0 0 24 24" fill="none" xmlns="http://www.w3.org/2000/svg">
<path d="M22.009 3C22.687 3 23.1984 3.57996 22.9248 4.65869L19.6065 19.9117C19.3745 20.9962 18.7025 21.2572 17.7748 20.7526L9.85949 15.0516C9.82879 15.0301 9.80379 15.0018 9.78653 14.969C9.76928 14.9363 9.76029 14.9 9.76029 14.8631C9.76029 14.8263 9.76928 14.79 9.78653 14.7572C9.80379 14.7244 9.82879 14.6961 9.85949 14.6746L18.9999 6.62476C19.4162 6.26518 18.9107 6.0912 18.3636 6.41597L6.89198 13.4741C6.85719 13.4962 6.81769 13.5103 6.77648 13.5154C6.73526 13.5204 6.69341 13.5162 6.65411 13.5031L1.78359 12.001C0.701256 11.6936 0.701256 10.9687 2.02742 10.4525L21.5154 3.12179C21.67 3.04948 21.8378 3.00807 22.009 3Z" fill="#8D7E65"/>
</svg>
