<svg width="71" height="40" viewBox="0 0 71 40" fill="none" xmlns="http://www.w3.org/2000/svg">
<g clip-path="url(#clip0_1921_8382)">
<path d="M49.7207 36.7397C51.9731 34.3243 58.2194 30.4275 65.0148 36.3655C61.3667 40.4175 55.1026 41.7894 49.7207 36.7397Z" fill="#FFCC00"/>
<path d="M49.7207 36.7397C51.9731 34.3243 58.2194 30.4275 65.0148 36.3655C61.3667 40.4175 55.1026 41.7894 49.7207 36.7397Z" fill="url(#paint0_linear_1921_8382)"/>
<path d="M57.1602 30.364C58.9982 24.4972 65.0589 22.5323 69.94 25.4568C68.646 30.5447 62.5929 33.6982 57.1602 30.364Z" fill="#FFCC00"/>
<path d="M57.1602 30.364C58.9982 24.4972 65.0589 22.5323 69.94 25.4568C68.646 30.5447 62.5929 33.6982 57.1602 30.364Z" fill="url(#paint1_linear_1921_8382)"/>
<path d="M61.763 22.8296C60.9851 15.9499 65.4035 12.1982 70.793 12.5367C72.0387 18.5944 67.5034 23.0918 61.7656 22.8296H61.763Z" fill="#FFCC00"/>
<path d="M61.763 22.8296C60.9851 15.9499 65.4035 12.1982 70.793 12.5367C72.0387 18.5944 67.5034 23.0918 61.7656 22.8296H61.763Z" fill="url(#paint2_linear_1921_8382)"/>
<path d="M62.1339 13.9148C58.257 8.51888 59.0095 3.88147 64.3965 0C68.2759 5.39334 67.5234 10.0307 62.1339 13.9148Z" fill="#FFCC00"/>
<path d="M62.1339 13.9148C58.257 8.51888 59.0095 3.88147 64.3965 0C68.2759 5.39334 67.5234 10.0307 62.1339 13.9148Z" fill="url(#paint3_linear_1921_8382)"/>
<path d="M21.2824 36.7397C19.0299 34.3243 12.7837 30.4275 5.98828 36.3655C9.63639 40.4175 15.9004 41.7894 21.2824 36.7397Z" fill="#FFCC00"/>
<path d="M21.2824 36.7397C19.0299 34.3243 12.7837 30.4275 5.98828 36.3655C9.63639 40.4175 15.9004 41.7894 21.2824 36.7397Z" fill="url(#paint4_linear_1921_8382)"/>
<path d="M13.8409 30.3648C12.0004 24.4981 5.93968 22.5331 1.05859 25.4551C2.35259 30.543 8.40565 33.6965 13.8359 30.3623L13.8409 30.3648Z" fill="#FFCC00"/>
<path d="M13.8409 30.3648C12.0004 24.4981 5.93968 22.5331 1.05859 25.4551C2.35259 30.543 8.40565 33.6965 13.8359 30.3623L13.8409 30.3648Z" fill="url(#paint5_linear_1921_8382)"/>
<path d="M9.24 22.8296C10.0154 15.9499 5.59698 12.1982 0.207443 12.5367C-1.03825 18.5944 3.49709 23.0918 9.23492 22.8296H9.24Z" fill="#FFCC00"/>
<path d="M9.24 22.8296C10.0154 15.9499 5.59698 12.1982 0.207443 12.5367C-1.03825 18.5944 3.49709 23.0918 9.23492 22.8296H9.24Z" fill="url(#paint6_linear_1921_8382)"/>
<path d="M8.86904 13.9148C12.7459 8.51888 11.9934 3.88147 6.60645 0C2.727 5.39334 3.4795 10.0307 8.86904 13.9148Z" fill="#FFCC00"/>
<path d="M8.86904 13.9148C12.7459 8.51888 11.9934 3.88147 6.60645 0C2.727 5.39334 3.4795 10.0307 8.86904 13.9148Z" fill="url(#paint7_linear_1921_8382)"/>
<path d="M35.5005 1.1875C27.0748 1.19269 20.2487 8.03526 20.2539 16.4708C20.2564 20.513 21.8592 24.3894 24.7112 27.2506C27.4721 30.0173 33.9751 34.021 34.3615 38.2231C34.4175 38.8518 34.8751 39.3659 35.5005 39.3659C36.1259 39.3659 36.5835 38.8518 36.6394 38.2231C37.0258 34.021 43.5212 30.0275 46.2821 27.2608C52.2394 21.2955 52.2386 11.6246 46.2803 5.66024C43.421 2.79805 39.5438 1.18932 35.5005 1.1875Z" fill="url(#paint8_linear_1921_8382)"/>
<path d="M35.501 21.6851C32.6185 21.6854 30.2816 19.3462 30.2813 16.4603C30.2809 13.5744 32.6174 11.2347 35.4999 11.2344C35.5003 11.2344 35.5006 11.2344 35.501 11.2344C38.3828 11.2981 40.6674 13.6886 40.6038 16.5738C40.5421 19.3693 38.2933 21.6208 35.501 21.6825V21.6851Z" fill="white"/>
</g>
<defs>
<linearGradient id="paint0_linear_1921_8382" x1="64.9449" y1="36.3285" x2="49.6838" y2="36.9074" gradientUnits="userSpaceOnUse">
<stop stop-color="#FFCC00"/>
<stop offset="1" stop-color="#FE9B21"/>
</linearGradient>
<linearGradient id="paint1_linear_1921_8382" x1="69.7511" y1="25.091" x2="57.2713" y2="30.7762" gradientUnits="userSpaceOnUse">
<stop stop-color="#FFCC00"/>
<stop offset="1" stop-color="#FE9B21"/>
</linearGradient>
<linearGradient id="paint2_linear_1921_8382" x1="70.2817" y1="12.1667" x2="62.2358" y2="23.2854" gradientUnits="userSpaceOnUse">
<stop stop-color="#FFCC00"/>
<stop offset="1" stop-color="#FE9B21"/>
</linearGradient>
<linearGradient id="paint3_linear_1921_8382" x1="63.8338" y1="-0.0457245" x2="62.6896" y2="14.0343" gradientUnits="userSpaceOnUse">
<stop stop-color="#FFCC00"/>
<stop offset="1" stop-color="#FE9B21"/>
</linearGradient>
<linearGradient id="paint4_linear_1921_8382" x1="6.05817" y1="36.3285" x2="21.3192" y2="36.9074" gradientUnits="userSpaceOnUse">
<stop stop-color="#FFCC00"/>
<stop offset="1" stop-color="#FE9B21"/>
</linearGradient>
<linearGradient id="paint5_linear_1921_8382" x1="1.25006" y1="25.0917" x2="13.7299" y2="30.7768" gradientUnits="userSpaceOnUse">
<stop stop-color="#FFCC00"/>
<stop offset="1" stop-color="#FE9B21"/>
</linearGradient>
<linearGradient id="paint6_linear_1921_8382" x1="0.718977" y1="12.1665" x2="8.76487" y2="23.2853" gradientUnits="userSpaceOnUse">
<stop stop-color="#FFCC00"/>
<stop offset="1" stop-color="#FE9B21"/>
</linearGradient>
<linearGradient id="paint7_linear_1921_8382" x1="7.16914" y1="-0.0457245" x2="8.31327" y2="14.0343" gradientUnits="userSpaceOnUse">
<stop stop-color="#FFCC00"/>
<stop offset="1" stop-color="#FE9B21"/>
</linearGradient>
<linearGradient id="paint8_linear_1921_8382" x1="35.5017" y1="1.1875" x2="35.5017" y2="39.3659" gradientUnits="userSpaceOnUse">
<stop stop-color="#FF6122"/>
<stop offset="1" stop-color="#F22411"/>
</linearGradient>
<clipPath id="clip0_1921_8382">
<rect width="71" height="40" fill="white"/>
</clipPath>
</defs>
</svg>
